<svg version="1" xmlns="http://www.w3.org/2000/svg" width="800" height="800" viewBox="0 0 600.000000 600.000000"><path d="M279.8.5c-.2.1-3.4.5-7.3.9C210.6 6.7 150.4 32.5 103 73.9c-13.3 11.7-29.7 29-39 41.1-1.9 2.5-3.8 4.9-4.3 5.5-4 4.9-13.8 19.8-20 30.3-3.6 6.2-16.2 32-17.2 35.2-.4 1.4-1.1 2.9-1.5 3.5-2.5 3.3-13.5 41.7-16 56-.5 3.3-1.2 6.9-1.4 8-4.1 21.6-4.1 70.6-.1 92.5.3 1.4 1 5.3 1.5 8.7.6 3.4 1.2 6.8 1.5 7.5.2.7.6 2.4.9 3.8 1.6 9.8 10.3 36.7 16.5 51.5 19.5 45.9 52.8 89 93.1 120.2 7 5.4 29.3 20.7 29.8 20.4.1-.1 2.9 1.4 6.2 3.3 7.7 4.5 26.9 13.8 36.2 17.5 11.9 4.7 35 11.8 44.3 13.7 28 5.6 40.1 6.9 66 6.9 16.9 0 35.7-.9 38.7-2 .7-.2 3.3-.6 5.8-.9 4.1-.4 12.6-1.9 17.5-3 39.6-8.7 71.9-22.3 104.5-43.9 26-17.3 46.2-35.8 69.5-63.8 3-3.5 13.7-18.8 16.5-23.4 1.3-2.2 2.7-4.2 3-4.5 2.5-2.1 17.9-32.5 23.2-46 7.3-18.3 14.3-41.9 16.4-55.4.3-2.1.8-4.8 1-6 .3-1.1.7-3.9 1-6.1.3-2.2.7-5.1 1-6.5 2.5-14.9 2.5-60.9 0-76-.3-1.4-.7-4.3-1-6.5-.9-6.4-2.4-14.6-3.6-20-.6-2.8-1.4-6-1.6-7.2-.9-4.7-8.7-29.2-12.1-37.8-4.3-11.1-12.1-27.4-18.1-38-4.7-8.3-20.5-32-24.4-36.7-1.3-1.5-4.8-5.7-7.8-9.4-5.4-6.6-24.1-25.7-31.4-32.2-18.6-16.3-42.7-32.3-66.9-44.1-13.7-6.7-19.3-9-32.2-13.3-3.3-1.1-6.9-2.3-8-2.8-1.1-.5-3.1-1.1-4.5-1.4-1.4-.4-6.5-1.7-11.5-3.1-10.1-2.6-28-6.1-37-7.1-3.3-.3-6.9-.8-8-1.1-2.2-.5-49.1-1.3-49.7-.8z"/></svg>